HIERARCHY
ROOT reference
{
  OFFSET 0 0 0
  CHANNELS 6 Xposition Yposition Zposition Zrotation Xrotation Yrotation
  JOINT Hips
  {
    OFFSET 21.4504 68.8633 78.1377
    CHANNELS 6 Xposition Yposition Zposition Zrotation Xrotation Yrotation
    JOINT Spine
    {
      OFFSET 0 8.25043 0
      CHANNELS 6 Xposition Yposition Zposition Zrotation Xrotation Yrotation
      JOINT Spine1
      {
        OFFSET 0 26.9735 0
        CHANNELS 6 Xposition Yposition Zposition Zrotation Xrotation Yrotation
        JOINT Neck
        {
          OFFSET 0 26.8627 2.44206
          CHANNELS 6 Xposition Yposition Zposition Zrotation Xrotation Yrotation
          JOINT Head
          {
            OFFSET 0 14.0861 -2.0123
            CHANNELS 6 Xposition Yposition Zposition Zrotation Xrotation Yrotation
            End Site
            {
              OFFSET 0 25.1537 0
            }
          }
        }
        JOINT LeftShoulder
        {
          OFFSET 4.03461 23.8974 -0.31355
          CHANNELS 6 Xposition Yposition Zposition Zrotation Xrotation Yrotation
          JOINT LeftArm
          {
            OFFSET 14.6104 0 0
            CHANNELS 6 Xposition Yposition Zposition Zrotation Xrotation Yrotation
            JOINT LeftForeArm
            {
              OFFSET 28.8903 0 0
              CHANNELS 6 Xposition Yposition Zposition Zrotation Xrotation Yrotation
              JOINT LeftHand
              {
                OFFSET 28.8168 0 0
                CHANNELS 6 Xposition Yposition Zposition Zrotation Xrotation Yrotation
                End Site
                {
                  OFFSET 15.0922 0 0
                }
              }
            }
          }
        }
        JOINT RightShoulder
        {
          OFFSET -4.01401 23.8974 -0.31355
          CHANNELS 6 Xposition Yposition Zposition Zrotation Xrotation Yrotation
          JOINT RightArm
          {
            OFFSET -14.6104 0 0
            CHANNELS 6 Xposition Yposition Zposition Zrotation Xrotation Yrotation
            JOINT RightForeArm
            {
              OFFSET -28.8903 0 0
              CHANNELS 6 Xposition Yposition Zposition Zrotation Xrotation Yrotation
              JOINT RightHand
              {
                OFFSET -28.8168 0 0
                CHANNELS 6 Xposition Yposition Zposition Zrotation Xrotation Yrotation
                End Site
                {
                  OFFSET -15.0922 0 0
                }
              }
            }
          }
        }
      }
    }
    JOINT LeftUpLeg
    {
      OFFSET 10.0615 0 0
      CHANNELS 6 Xposition Yposition Zposition Zrotation Xrotation Yrotation
      JOINT LeftLeg
      {
        OFFSET 0 -36.0896 0
        CHANNELS 6 Xposition Yposition Zposition Zrotation Xrotation Yrotation
        JOINT LeftFoot
        {
          OFFSET 0 -47.1136 0
          CHANNELS 6 Xposition Yposition Zposition Zrotation Xrotation Yrotation
          JOINT LeftToeBase
          {
            OFFSET 0 -6.53997 15.0922
            CHANNELS 6 Xposition Yposition Zposition Zrotation Xrotation Yrotation
            End Site
            {
              OFFSET 0 0 4.0246
            }
          }
        }
      }
    }
    JOINT RightUpLeg
    {
      OFFSET -10.0615 0 0
      CHANNELS 6 Xposition Yposition Zposition Zrotation Xrotation Yrotation
      JOINT RightLeg
      {
        OFFSET 0 -36.0896 0
        CHANNELS 6 Xposition Yposition Zposition Zrotation Xrotation Yrotation
        JOINT RightFoot
        {
          OFFSET 0 -47.1136 0
          CHANNELS 6 Xposition Yposition Zposition Zrotation Xrotation Yrotation
          JOINT RightToeBase
          {
            OFFSET 0 -6.53997 15.0922
            CHANNELS 6 Xposition Yposition Zposition Zrotation Xrotation Yrotation
            End Site
            {
              OFFSET 0 0 4.0246
            }
          }
        }
      }
    }
  }
}
MOTION
Frames:	9
Frame Time:	0.004
0 0 0 0 0 -0 6.49698 83.0142 -212.837 -1.40587 -2.15119 2.9638 0 8.25043 -2.84217e-014 -1.28468 -3.82147 0.65038 1.77636e-015 26.9735 0 -0.890771 0.974581 0.700935 1.77636e-015 26.8627 2.44206 6.91384 16.6906 12.3169 0 14.0861 -2.0123 -8.10303 5.40861 12.0869 4.03461 23.8974 -0.31355 18.494 1.62093 1.58645 14.6104 -2.84217e-014 2.84217e-014 -22.5288 -0.44317 -2.2989 28.8903 2.84217e-014 0 -1.08264 1.53457 0.760054 28.8168 2.84217e-014 0 22.5816 0.946868 -2.98052 -4.01401 23.8974 -0.31355 -15.9956 0.701325 0.232132 -14.6104 0 0 17.9182 6.73312 4.69744 -28.8903 0 -2.84217e-014 -5.97003 -1.02537 1.13398 -28.8168 -2.84217e-014 0 -13.8275 -0.333092 -5.21595 10.0615 0 0 5.48743 1.74071 -7.08118 0 -36.0896 0 -4.40754 12.0615 -13.5123 0 -47.1136 0 10.8035 -14.2445 26.6204 0 -6.53997 15.0922 1.98785e-016 7.95139e-016 3.18055e-015 -10.0615 0 -2.84217e-014 -2.83682 4.3567 5.94515 0 -36.0896 0 5.01543 9.04199 0.491694 0 -47.1136 2.84217e-014 -5.64576 -15.9748 -9.94061 8.88178e-016 -6.53997 15.0922 -1.33558e-016 7.95139e-016 1.49089e-016 
0 0 0 0 0 -0 6.49698 83.0142 -212.837 -1.40587 -2.15119 2.9638 0 8.25043 -2.84217e-014 -1.28468 -3.82147 0.65038 1.77636e-015 26.9735 0 -0.890771 0.974581 0.700935 1.77636e-015 26.8627 2.44206 6.91384 16.6906 12.3169 0 14.0861 -2.0123 -8.0963 5.40861 12.0869 4.03461 23.8974 -0.31355 18.4942 1.61553 1.58351 14.6104 2.84217e-014 0 -22.528 -0.425143 -2.29268 28.8903 0 2.84217e-014 -1.0825 1.52402 0.76005 28.8168 -2.84217e-014 0 22.5566 0.938691 -2.97167 -4.01401 23.8974 -0.31355 -15.9956 0.692249 0.232132 -14.6104 0 0 17.9189 6.73317 4.69168 -28.8903 -2.84217e-014 0 -5.9697 -1.0417 1.13398 -28.8168 2.84217e-014 0 -13.7979 -0.351473 -5.21596 10.0615 0 0 5.48552 1.72532 -7.08112 -3.55271e-015 -36.0896 0 -4.34255 12.0461 -13.8235 -7.10543e-015 -47.1136 0 10.7722 -14.2271 26.7656 -7.10543e-015 -6.53997 15.0922 1.98785e-016 -7.95139e-016 7.95139e-016 -10.0615 0 -2.84217e-014 -2.82953 4.32554 5.76665 0 -36.0896 2.84217e-014 4.98345 9.10327 0.690487 3.55271e-015 -47.1136 -2.84217e-014 -5.63073 -15.9804 -9.97274 0 -6.53997 15.0922 1.28589e-015 2.38542e-015 -4.96962e-017 
0 0 0 0 0 -0 6.49698 83.0142 -212.831 -1.40424 -2.15119 2.9638 0 8.25043 -2.84217e-014 -1.28468 -3.82147 0.65038 -3.55271e-015 26.9735 0 -0.878445 0.974581 0.700935 3.55271e-015 26.8627 2.44206 6.91384 16.6906 12.3169 0 14.0861 -2.0123 -8.1193 5.40861 12.0869 4.03461 23.8974 -0.31355 18.4945 1.6099 1.5773 14.6104 2.84217e-014 -2.84217e-014 -22.527 -0.399793 -2.28871 28.8903 2.84217e-014 0 -1.08231 1.50936 0.760045 28.8168 0 0 22.5507 0.929171 -2.94598 -4.01401 23.8974 -0.31355 -15.9957 0.697299 0.237014 -14.6104 2.84217e-014 -2.84217e-014 17.92 6.73326 4.68288 -28.8903 2.84217e-014 0 -5.96935 -1.05953 1.13399 -28.8168 0 0 -13.7942 -0.369935 -5.21597 10.0615 -1.42109e-014 0 5.48571 1.72686 -7.08113 0 -36.0896 -2.84217e-014 -4.33715 12.0459 -13.8481 0 -47.1136 -2.84217e-014 10.7654 -14.2318 26.7845 0 -6.53997 15.0922 3.97569e-016 0 -7.95139e-016 -10.0615 1.42109e-014 0 -2.82889 4.32742 5.75082 3.55271e-015 -36.0896 0 4.96993 9.10316 0.696058 3.55271e-015 -47.1136 2.84217e-014 -5.62829 -15.9957 -9.9602 0 -6.53997 15.0922 1.35111e-015 2.38542e-015 9.93923e-017 
0 0 0 0 0 -0 6.49698 83.0142 -212.824 -1.40681 -2.15119 2.9638 0 8.25043 0 -1.28469 -3.82147 0.650188 -3.55271e-015 26.9735 5.68434e-014 -0.886472 0.974581 0.700935 -1.77636e-015 26.8627 2.44206 6.90395 16.6906 12.3169 0 14.0861 -2.0123 -8.09307 5.40861 12.0869 4.03461 23.8974 -0.31355 18.5049 1.6044 1.56975 14.6104 2.84217e-014 2.84217e-014 -22.5273 -0.409686 -2.2793 28.8903 0 0 -1.08111 1.52468 0.760974 28.8168 0 0 22.5449 0.944324 -2.9479 -4.01401 23.8974 -0.31355 -15.9958 0.692381 0.244097 -14.6104 -2.84217e-014 0 17.9219 6.72703 4.67107 -28.8903 -2.84217e-014 0 -5.96935 -1.05972 1.13399 -28.8168 2.84217e-014 -2.84217e-014 -13.7806 -0.369907 -5.21597 10.0615 1.42109e-014 0 5.48591 1.72846 -7.08114 5.32907e-015 -36.0896 -2.84217e-014 -4.40198 12.0721 -13.5263 0 -47.1136 0 10.7973 -14.2625 26.6439 0 -6.53997 15.0922 -9.93923e-017 7.95139e-016 1.59028e-015 -10.0615 0 0 -2.83632 4.35925 5.91329 0 -36.0896 -2.84217e-014 4.99908 9.03217 0.507382 0 -47.1136 2.84217e-014 -5.63396 -15.9731 -9.93355 8.88178e-016 -6.53997 15.0922 -1.0312e-015 7.95139e-016 -1.49089e-016 
0 0 0 0 0 -0 6.49937 83.0142 -212.818 -1.41004 -2.15119 2.9638 0 8.25043 -2.84217e-014 -1.2845 -3.82147 0.653066 1.77636e-015 26.9735 2.84217e-014 -0.878156 0.97458 0.703957 -1.77636e-015 26.8627 2.44206 6.9023 16.6906 12.3169 0 14.0861 -2.0123 -8.10414 5.40859 12.0881 4.03461 23.8974 -0.31355 18.4893 1.59413 1.57029 14.6104 -2.84217e-014 -2.84217e-014 -22.5269 -0.39991 -2.27673 28.8903 0 0 -1.07018 1.52584 0.759523 28.8168 0 0 22.5186 0.947772 -2.93933 -4.01401 23.8974 -0.31355 -16.0049 0.685748 0.247242 -14.6104 0 0 17.9235 6.71695 4.6644 -28.8903 0 0 -5.96917 -1.06881 1.13391 -28.8168 -2.84217e-014 -2.84217e-014 -13.7821 -0.378872 -5.21666 10.0615 0 0 5.48762 1.72836 -7.08114 3.55271e-015 -36.0896 0 -4.33593 12.0509 -13.8483 -7.10543e-015 -47.1136 2.84217e-014 10.7867 -14.2307 26.7873 7.10543e-015 -6.53997 15.0922 -6.95746e-016 0 -1.59028e-015 -10.0615 -1.42109e-014 -2.84217e-014 -2.8262 4.3763 5.90218 -3.55271e-015 -36.0896 -2.84217e-014 4.99156 9.0215 0.487784 -3.55271e-015 -47.1136 0 -5.59137 -15.9752 -9.90643 0 -6.53997 15.0922 -4.03781e-017 1.59028e-015 -0 
0 0 0 0 0 -0 6.50385 83.0142 -212.813 -1.41363 -2.1512 2.95564 1.77636e-015 8.25043 0 -1.28712 -3.82147 0.656511 1.77636e-015 26.9735 0 -0.869728 0.97458 0.706978 0 26.8627 2.44206 6.89629 16.6906 12.3169 0 14.0861 -2.0123 -8.09828 5.40857 12.0889 4.03461 23.8974 -0.31355 18.4929 1.59621 1.55529 14.6104 2.84217e-014 5.68434e-014 -22.5276 -0.4185 -2.27552 28.8903 0 0 -1.08144 1.53169 0.757523 28.8168 0 2.84217e-014 22.5799 0.955746 -2.92092 -4.01401 23.8974 -0.31355 -16.0125 0.681565 0.251848 -14.6104 2.84217e-014 0 17.9247 6.71794 4.65293 -28.8903 -2.84217e-014 0 -5.96934 -1.06934 1.12383 -28.8168 -2.84217e-014 0 -13.7058 -0.386673 -5.18983 10.0615 0 0 5.4895 1.72966 -7.08114 1.77636e-015 -36.0896 0 -4.39397 12.0889 -13.5446 0 -47.1136 2.84217e-014 10.7876 -14.278 26.6371 7.10543e-015 -6.53997 15.0922 2.98177e-016 0 -1.59028e-015 -10.0615 -1.42109e-014 0 -2.82736 4.38108 5.92962 0 -36.0896 0 5.00493 9.00937 0.498396 0 -47.1136 0 -5.62513 -15.9683 -9.94548 0 -6.53997 15.0922 9.03849e-016 1.59028e-015 9.93923e-017 
0 0 0 0 0 -0 6.5086 83.0142 -212.808 -1.41668 -2.14696 2.95234 1.77636e-015 8.25043 0 -1.27711 -3.82146 0.659823 1.77636e-015 26.9735 0 -0.877128 0.974579 0.709917 0 26.8627 2.44206 6.91 16.6906 12.3169 1.42109e-014 14.0861 -2.0123 -8.11698 5.41399 12.09 4.03461 23.8974 -0.31355 18.4935 1.59548 1.56362 14.6104 5.68434e-014 -2.84217e-014 -22.5271 -0.403804 -2.2746 28.8903 0 0 -1.07218 1.54116 0.755149 28.8168 2.84217e-014 0 22.551 0.962366 -2.93838 -4.01401 23.8974 -0.31355 -16.0097 0.680302 0.25357 -14.6104 2.84217e-014 2.84217e-014 17.9259 6.71903 4.64687 -28.8903 0 0 -5.96928 -1.07225 1.12428 -28.8168 2.84217e-014 0 -13.7393 -0.382541 -5.20079 10.0615 -1.42109e-014 -2.84217e-014 5.49205 1.73962 -7.09255 1.77636e-015 -36.0896 0 -4.39974 12.0733 -13.5351 7.10543e-015 -47.1136 0 10.8033 -14.2686 26.6534 0 -6.53997 15.0922 6.95746e-016 0 -1.59028e-015 -10.0615 0 0 -2.82376 4.37829 5.87647 0 -36.0896 0 4.97954 9.01435 0.512114 -3.55271e-015 -47.1136 2.84217e-014 -5.612 -15.9666 -9.89353 -8.88178e-016 -6.53997 15.0922 1.77974e-015 0 -9.93923e-017 
0 0 0 0 0 -0 6.51268 83.0142 -212.802 -1.41658 -2.14151 2.94485 1.77636e-015 8.25043 -2.84217e-014 -1.2803 -3.82573 0.662241 1.77636e-015 26.9735 0 -0.866607 0.974611 0.712412 0 26.8627 2.44206 6.90114 16.6849 12.3165 -1.42109e-014 14.0861 -2.0123 -8.11292 5.42041 12.091 4.03461 23.8974 -0.31355 18.4936 1.5944 1.56667 14.6104 0 0 -22.5265 -0.388937 -2.27437 28.8903 2.84217e-014 0 -1.06775 1.53348 0.741835 28.8168 2.84217e-014 0 22.6019 0.956793 -2.92038 -4.01401 23.8974 -0.31355 -16.0132 0.679576 0.261237 -14.6104 0 0 17.9333 6.69437 4.64559 -28.8903 -2.84217e-014 -2.84217e-014 -5.97795 -1.06239 1.12296 -28.8168 -2.84217e-014 2.84217e-014 -13.6942 -0.378883 -5.20152 10.0615 0 0 5.48829 1.73985 -7.07 -1.77636e-015 -36.0896 0 -4.39728 12.0741 -13.5639 0 -47.1136 0 10.823 -14.269 26.6707 0 -6.53997 15.0922 1.98785e-016 0 -0 -10.0615 1.42109e-014 0 -2.82937 4.37919 5.91609 3.55271e-015 -36.0896 0 4.99149 9.00657 0.463415 0 -47.1136 0 -5.601 -15.974 -9.88969 -8.88178e-016 -6.53997 15.0922 -1.51884e-015 1.59028e-015 -4.96962e-017 
0 0 0 0 0 -0 6.52365 83.0142 -212.743 -1.38278 -2.28171 2.83357 0 8.25043 -2.84217e-014 -1.29971 -3.752 0.721249 0 26.9735 -2.84217e-014 -0.863958 1.03936 0.771659 0 26.8627 2.44206 6.89371 16.6723 12.3157 0 14.0861 -2.0123 -8.09075 5.44059 12.0924 4.03461 23.8974 -0.31355 18.4922 1.59319 1.56845 14.6104 2.84217e-014 2.84217e-014 -22.5268 -0.362343 -2.27773 28.8903 -2.84217e-014 0 -1.06696 1.51988 0.736178 28.8168 0 0 22.6214 0.943564 -2.91581 -4.01401 23.8974 -0.31355 -16.0178 0.679272 0.264305 -14.6104 2.84217e-014 0 17.9387 6.70433 4.64398 -28.8903 0 2.84217e-014 -5.98171 -1.07183 1.12119 -28.8168 -2.84217e-014 0 -13.6852 -0.389467 -5.20304 10.0615 0 0 5.4415 2.0211 -7.02701 5.32907e-015 -36.0896 0 -4.37438 11.9349 -13.4884 -7.10543e-015 -47.1136 0 10.7757 -14.2281 26.6429 0 -6.53997 15.0922 -6.95746e-016 0 3.18055e-015 -10.0615 1.42109e-014 -2.84217e-014 -2.86814 4.57497 6.03362 -3.55271e-015 -36.0896 0 4.97924 8.9447 0.474272 0 -47.1136 -2.84217e-014 -5.60353 -15.9426 -9.8808 -8.88178e-016 -6.53997 15.0922 -1.40702e-015 0 1.49089e-016 
